<?xml version="1.0" encoding="UTF-8" standalone="no"?>
<!DOCTYPE svg PUBLIC "-//W3C//DTD SVG 1.1//EN" "http://www.w3.org/Graphics/SVG/1.1/DTD/svg11.dtd">
<svg width="100%" height="100%" viewBox="0 0 500 500" version="1.1" xmlns="http://www.w3.org/2000/svg" xmlns:xlink="http://www.w3.org/1999/xlink" xml:space="preserve" xmlns:serif="http://www.serif.com/" style="fill-rule:evenodd;clip-rule:evenodd;stroke-linejoin:round;stroke-miterlimit:2;">
    <g transform="matrix(1,0,0,1,0,2)">
        <g id="Triangles" transform="matrix(1,0,0,1,0,-2)">
            <path d="M245.918,495.135L225.157,361.186C231.031,362.162 237.062,362.67 243.211,362.67C251.325,362.67 259.234,361.786 266.846,360.107L245.918,495.135ZM390.923,448.045L293.785,350.297C306.525,343.644 317.795,334.557 326.978,323.655L390.923,448.045ZM162.867,327.53C172.282,337.699 183.602,346.08 196.256,352.103L100.913,448.045L162.867,327.53ZM134.137,262.727C135.383,277.133 139.424,290.744 145.713,303.015L11.295,324.761L134.137,262.727ZM480.541,324.761L341.119,302.206C347.551,289.397 351.542,275.155 352.481,260.091L480.541,324.761ZM351.579,237.499C349.401,222.343 344.114,208.186 336.385,195.695L480.541,172.374L351.579,237.499ZM150.533,194.9C142.973,206.889 137.674,220.444 135.238,234.964L11.295,172.374L150.533,194.9ZM323.983,179.304C313.852,168.235 301.478,159.252 287.584,153.078L390.923,49.09L323.983,179.304ZM202.653,151.469C188.808,157 176.353,165.278 165.963,175.628L100.913,49.09L202.653,151.469ZM268.33,146.6C260.263,144.702 251.853,143.699 243.211,143.699C236.548,143.699 230.023,144.295 223.687,145.438L245.918,2L268.33,146.6Z" style="fill:white;"/>
        </g>
        <g transform="matrix(0.63601,0,0,0.63601,71.0704,56.8426)">
            <circle cx="270.249" cy="304.517" r="150.312" style="fill:white;"/>
        </g>
    </g>
</svg>
