<?xml version="1.0" encoding="UTF-8" standalone="no"?>
<!DOCTYPE svg PUBLIC "-//W3C//DTD SVG 1.1//EN" "http://www.w3.org/Graphics/SVG/1.1/DTD/svg11.dtd">
<svg width="100%" height="100%" viewBox="0 0 800 800" version="1.1" xmlns="http://www.w3.org/2000/svg" xmlns:xlink="http://www.w3.org/1999/xlink" xml:space="preserve" xmlns:serif="http://www.serif.com/" style="fill-rule:evenodd;clip-rule:evenodd;stroke-linejoin:round;stroke-miterlimit:1.41421;">
    <g transform="matrix(1.10849,-0.414916,0.414916,1.10849,-213.005,143.976)">
        <path d="M389.188,105.102C389.099,103.29 388.286,101.589 386.933,100.382C385.579,99.174 383.797,98.56 381.987,98.677C223.501,109.604 99.938,238.295 99.938,394.024C99.938,557.436 235.955,690.105 403.489,690.105C571.024,690.105 707.04,557.436 707.04,394.024C707.04,318.072 677.121,245.129 623.648,190.186C620.627,187.11 615.688,187.057 612.602,190.067C607.661,194.877 600.488,201.873 595.662,206.581C594.3,207.91 593.522,209.727 593.5,211.63C593.479,213.533 594.215,215.366 595.547,216.726C641.967,264.555 667.933,327.984 667.933,394.024C667.933,536.383 549.439,651.959 403.489,651.959C257.539,651.959 139.045,536.383 139.045,394.024C139.045,258.715 246.125,146.837 383.669,136.813C387.586,136.547 390.568,133.193 390.374,129.272C390.042,122.352 389.526,111.916 389.188,105.102Z"/>
    </g>
    <g transform="matrix(0.768182,0,0,0.59727,117.224,18.0274)">
        <path d="M406.231,45.914C406.231,33.752 398.553,23.877 389.097,23.877L354.829,23.877C345.372,23.877 337.695,33.752 337.695,45.914L337.695,366.949C337.695,379.112 345.372,388.986 354.829,388.986L389.097,388.986C398.553,388.986 406.231,379.112 406.231,366.949L406.231,45.914Z"/>
    </g>
</svg>
